<svg xmlns="http://www.w3.org/2000/svg" viewBox="0 0 512 512"><defs><style>.cls-1{fill:#f80;}.cls-2{fill:#e47700;}.cls-3{fill:#984d00;}.cls-4{fill:#723802;}</style></defs><title>acorn_alpha_vector</title><g id="Acorn"><path class="cls-1" d="M169.52,64.29,66.88,166.93A227.59,227.59,0,0,0,19.2,418.85l22.63,51.89,51.89,22.63a227.61,227.61,0,0,0,251.93-47.68L448.29,343.05Z"/><path class="cls-2" d="M41.83,470.74l51.89,22.63a227.61,227.61,0,0,0,251.93-47.68L448.29,343.05,308.9,203.67Z"/><rect class="cls-2" x="390.63" y="53.03" width="107.82" height="30" transform="translate(82.1 334.26) rotate(-45)"/><rect class="cls-3" x="395.94" y="65.84" width="107.82" height="15" transform="translate(79.9 339.57) rotate(-45)"/><path class="cls-3" d="M458.65,114.63,397.94,53.92c-71.41-71.41-187.19-71.41-258.61,0h0L458.65,373.24h0A182.85,182.85,0,0,0,458.65,114.63Z"/><path class="cls-4" d="M428.3,84.27,299,213.58,458.65,373.24h0a182.85,182.85,0,0,0,0-258.61Z"/></g></svg>