<?xml version="1.0" encoding="UTF-8" standalone="no"?>
<!DOCTYPE svg PUBLIC "-//W3C//DTD SVG 1.1//EN" "http://www.w3.org/Graphics/SVG/1.1/DTD/svg11.dtd">
<svg width="100%" height="100%" viewBox="0 0 108 108" version="1.1" xmlns="http://www.w3.org/2000/svg" xmlns:xlink="http://www.w3.org/1999/xlink" xml:space="preserve" xmlns:serif="http://www.serif.com/" style="fill-rule:evenodd;clip-rule:evenodd;stroke-linejoin:round;stroke-miterlimit:2;">
    <g id="Acorn" transform="matrix(0.175802,0,0,0.175918,8.95211,8.87842)">
        <path d="M186.86,102.7L104.75,184.81C51.915,237.645 36.73,317.871 66.6,386.36L84.71,427.86L126.22,446C194.706,475.868 274.929,460.683 327.76,407.85L409.87,325.74L186.86,102.7Z" style="fill:rgb(255,136,0);fill-rule:nonzero;"/>
        <path d="M84.71,427.86L126.22,446C194.706,475.868 274.929,460.683 327.76,407.85L409.87,325.74L298.36,214.21L84.71,427.86Z" style="fill:rgb(228,119,0);fill-rule:nonzero;"/>
        <g transform="matrix(0.707107,-0.707107,0.707107,0.707107,44.44,318.66)">
            <rect x="363.75" y="93.69" width="86.25" height="24" style="fill:rgb(228,119,0);"/>
        </g>
        <g transform="matrix(0.707107,-0.707107,0.707107,0.707107,42.68,322.91)">
            <rect x="368" y="103.94" width="86.25" height="12" style="fill:rgb(152,77,0);"/>
        </g>
        <path d="M418.17,143L369.6,94.41C312.85,37.665 219.46,37.665 162.71,94.41L418.17,349.86C474.906,293.118 474.906,199.742 418.17,143Z" style="fill:rgb(152,77,0);fill-rule:nonzero;"/>
        <path d="M393.88,118.69L290.44,222.14L418.17,349.86C445.595,322.437 461.019,285.203 461.019,246.42C461.019,207.637 445.595,170.403 418.17,142.98L393.88,118.69Z" style="fill:rgb(114,56,2);fill-rule:nonzero;"/>
    </g>
</svg>
