<svg xmlns="http://www.w3.org/2000/svg" viewBox="0 0 512 512"><defs><style>.cls-1{fill:gray;}.cls-2{fill:#666;}.cls-3{fill:#f80;}.cls-4{fill:#e47700;}.cls-5{fill:#984d00;}.cls-6{fill:#723802;}</style></defs><title>acorn_drop_vector</title><g id="Background"><rect class="cls-1" width="512" height="512"/></g><g id="Shadow"><polygon class="cls-2" points="85 428 200.01 512 512 512 512 135.81 446 84 85 428"/></g><g id="Acorn"><path class="cls-3" d="M186.86,102.7l-82.11,82.11A182.09,182.09,0,0,0,66.6,386.36l18.11,41.5L126.22,446a182.08,182.08,0,0,0,201.54-38.15l82.11-82.11Z"/><path class="cls-4" d="M84.71,427.86,126.22,446a182.08,182.08,0,0,0,201.54-38.15l82.11-82.11L298.36,214.21Z"/><rect class="cls-4" x="363.75" y="93.69" width="86.25" height="24" transform="translate(44.44 318.66) rotate(-45)"/><rect class="cls-5" x="368" y="103.94" width="86.25" height="12" transform="translate(42.68 322.91) rotate(-45)"/><path class="cls-5" d="M418.17,143,369.6,94.41a146.3,146.3,0,0,0-206.89,0h0L418.17,349.86h0A146.28,146.28,0,0,0,418.17,143Z"/><path class="cls-6" d="M393.88,118.69,290.44,222.14,418.17,349.86h0a146.28,146.28,0,0,0,0-206.88Z"/></g></svg>